<svg preserveAspectRatio="none" width="100%" height="100%" overflow="visible" style="display: block;" viewBox="0 0 40 40" fill="none" xmlns="http://www.w3.org/2000/svg">
<g id="icon-dark">
<g id="Vector">
<path d="M20 11.4286L22.8571 8.57143L25.7143 11.4286L22.8571 14.2857L20 11.4286Z" fill="var(--fill-0, white)"/>
<path d="M22.8571 8.57143L25.7143 5.71429L28.5714 8.57143L25.7143 11.4286L22.8571 8.57143Z" fill="var(--fill-0, white)"/>
<path d="M8.57143 17.1429L11.4286 14.2857L14.2857 17.1429L11.4286 20L8.57143 17.1429Z" fill="var(--fill-0, white)"/>
<path d="M25.7143 17.1429L28.5714 14.2857L31.4286 17.1429L28.5714 20L25.7143 17.1429Z" fill="var(--fill-0, white)"/>
<path d="M28.5714 20L31.4286 17.1429L34.2857 20L31.4286 22.8571L28.5714 20Z" fill="var(--fill-0, white)"/>
<path d="M11.4286 8.57143L14.2857 5.71429L17.1429 8.57143L14.2857 11.4286L11.4286 8.57143Z" fill="var(--fill-0, white)"/>
<path d="M28.5714 14.2857L31.4286 11.4286L34.2857 14.2857L31.4286 17.1429L28.5714 14.2857Z" fill="var(--fill-0, white)"/>
<path d="M28.5714 25.7143L31.4286 22.8571L34.2857 25.7143L31.4286 28.5714L28.5714 25.7143Z" fill="var(--fill-0, white)"/>
<path d="M22.8571 31.4286L25.7143 28.5714L28.5714 31.4286L25.7143 34.2857L22.8571 31.4286Z" fill="var(--fill-0, white)"/>
<path d="M5.71429 14.2857L8.57143 11.4286L11.4286 14.2857L8.57143 17.1429L5.71429 14.2857Z" fill="var(--fill-0, white)"/>
<path d="M8.57143 22.8571L11.4286 20L14.2857 22.8571L11.4286 25.7143L8.57143 22.8571Z" fill="var(--fill-0, white)"/>
<path d="M5.71429 25.7143L8.57143 22.8571L11.4286 25.7143L8.57143 28.5714L5.71429 25.7143Z" fill="var(--fill-0, white)"/>
<path d="M14.2857 28.5714L17.1429 25.7143L20 28.5714L17.1429 31.4286L14.2857 28.5714Z" fill="var(--fill-0, white)"/>
<path d="M11.4286 31.4286L14.2857 28.5714L17.1429 31.4286L14.2857 34.2857L11.4286 31.4286Z" fill="var(--fill-0, white)"/>
<path d="M2.85714 34.2857L5.71429 31.4286L8.57143 34.2857L5.71429 37.1429L2.85714 34.2857Z" fill="var(--fill-0, white)"/>
<path d="M5.71429 31.4286L8.57143 28.5714L11.4286 31.4286L8.57143 34.2857L5.71429 31.4286Z" fill="var(--fill-0, white)"/>
<path d="M2.85714 5.71429L5.71429 2.85714L8.57143 5.71429L5.71429 8.57143L2.85714 5.71429Z" fill="var(--fill-0, white)"/>
<path d="M5.71429 8.57143L8.57143 5.71429L11.4286 8.57143L8.57143 11.4286L5.71429 8.57143Z" fill="var(--fill-0, white)"/>
<path d="M28.5714 8.57143L31.4286 5.71428L34.2857 8.57143L31.4286 11.4286L28.5714 8.57143Z" fill="var(--fill-0, white)"/>
<path d="M31.4286 5.71428L34.2857 2.85714L37.1429 5.71428L34.2857 8.57143L31.4286 5.71428Z" fill="var(--fill-0, white)"/>
<path d="M28.5714 31.4286L31.4286 28.5714L34.2857 31.4286L31.4286 34.2857L28.5714 31.4286Z" fill="var(--fill-0, white)"/>
<path d="M31.4286 34.2857L34.2857 31.4286L37.1429 34.2857L34.2857 37.1429L31.4286 34.2857Z" fill="var(--fill-0, white)"/>
<path d="M17.1429 20L20 17.1429L22.8571 20L20 22.8571L17.1429 20Z" fill="var(--fill-0, white)"/>
<path d="M14.2857 11.4286L17.1429 8.57143L20 11.4286L17.1429 14.2857L14.2857 11.4286Z" fill="var(--fill-0, white)"/>
<path d="M17.1429 8.57143L20 5.71429L22.8571 8.57143L20 11.4286L17.1429 8.57143Z" fill="var(--fill-0, white)"/>
<path d="M25.7143 22.8571L28.5714 20L31.4286 22.8571L28.5714 25.7143L25.7143 22.8571Z" fill="var(--fill-0, white)"/>
<path d="M17.1429 37.1429L20 34.2857L22.8571 37.1429L20 40L17.1429 37.1429Z" fill="var(--fill-0, white)"/>
<path d="M0 20L2.85714 17.1429L5.71429 20L2.85714 22.8571L0 20Z" fill="var(--fill-0, white)"/>
<path d="M17.1429 2.85714L20 0L22.8571 2.85714L20 5.71429L17.1429 2.85714Z" fill="var(--fill-0, white)"/>
<path d="M34.2857 20L37.1429 17.1429L40 20L37.1429 22.8571L34.2857 20Z" fill="var(--fill-0, white)"/>
<path d="M17.1429 31.4286L20 28.5714L22.8571 31.4286L20 34.2857L17.1429 31.4286Z" fill="var(--fill-0, white)"/>
<path d="M20 28.5714L22.8572 25.7143L25.7143 28.5714L22.8571 31.4286L20 28.5714Z" fill="var(--fill-0, white)"/>
<path d="M5.71429 20L8.57143 17.1429L11.4286 20L8.57143 22.8571L5.71429 20Z" fill="var(--fill-0, white)"/>
</g>
</g>
</svg>
