<svg width="65" height="65" viewBox="0 0 65 65" fill="none" xmlns="http://www.w3.org/2000/svg">
<path d="M32.3983 18.5133L37.0267 13.885L41.655 18.5133L37.0267 23.1417L32.3983 18.5133Z" fill="#F5F3EE"/>
<path d="M37.0267 13.885L41.655 9.25667L46.2834 13.885L41.655 18.5133L37.0267 13.885Z" fill="#F5F3EE"/>
<path d="M13.885 27.77L18.5133 23.1417L23.1417 27.77L18.5133 32.3983L13.885 27.77Z" fill="#F5F3EE"/>
<path d="M41.655 27.77L46.2834 23.1417L50.9117 27.77L46.2834 32.3983L41.655 27.77Z" fill="#F5F3EE"/>
<path d="M46.2834 32.3983L50.9117 27.77L55.54 32.3983L50.9117 37.0267L46.2834 32.3983Z" fill="#F5F3EE"/>
<path d="M18.5133 13.885L23.1417 9.25667L27.77 13.885L23.1417 18.5133L18.5133 13.885Z" fill="#F5F3EE"/>
<path d="M46.2834 23.1417L50.9117 18.5133L55.54 23.1417L50.9117 27.77L46.2834 23.1417Z" fill="#F5F3EE"/>
<path d="M46.2834 41.655L50.9117 37.0267L55.54 41.655L50.9117 46.2834L46.2834 41.655Z" fill="#F5F3EE"/>
<path d="M37.0267 50.9117L41.655 46.2834L46.2834 50.9117L41.655 55.54L37.0267 50.9117Z" fill="#F5F3EE"/>
<path d="M9.25667 23.1417L13.885 18.5133L18.5133 23.1417L13.885 27.77L9.25667 23.1417Z" fill="#F5F3EE"/>
<path d="M13.885 37.0267L18.5133 32.3983L23.1417 37.0267L18.5133 41.655L13.885 37.0267Z" fill="#F5F3EE"/>
<path d="M9.25667 41.655L13.885 37.0267L18.5133 41.655L13.885 46.2834L9.25667 41.655Z" fill="#F5F3EE"/>
<path d="M23.1417 46.2834L27.77 41.655L32.3983 46.2834L27.77 50.9117L23.1417 46.2834Z" fill="#F5F3EE"/>
<path d="M18.5133 50.9117L23.1417 46.2834L27.77 50.9117L23.1417 55.54L18.5133 50.9117Z" fill="#F5F3EE"/>
<path d="M4.62833 55.54L9.25667 50.9117L13.885 55.54L9.25667 60.1684L4.62833 55.54Z" fill="#F5F3EE"/>
<path d="M9.25667 50.9117L13.885 46.2834L18.5133 50.9117L13.885 55.54L9.25667 50.9117Z" fill="#F5F3EE"/>
<path d="M4.62833 9.25667L9.25667 4.62834L13.885 9.25667L9.25667 13.885L4.62833 9.25667Z" fill="#F5F3EE"/>
<path d="M9.25667 13.885L13.885 9.25667L18.5133 13.885L13.885 18.5133L9.25667 13.885Z" fill="#F5F3EE"/>
<path d="M46.2834 13.885L50.9117 9.25667L55.54 13.885L50.9117 18.5133L46.2834 13.885Z" fill="#F5F3EE"/>
<path d="M50.9117 9.25667L55.54 4.62833L60.1684 9.25667L55.54 13.885L50.9117 9.25667Z" fill="#F5F3EE"/>
<path d="M46.2834 50.9117L50.9117 46.2834L55.54 50.9117L50.9117 55.54L46.2834 50.9117Z" fill="#F5F3EE"/>
<path d="M50.9117 55.54L55.54 50.9117L60.1684 55.54L55.54 60.1684L50.9117 55.54Z" fill="#F5F3EE"/>
<path d="M27.77 32.3983L32.3983 27.77L37.0267 32.3983L32.3983 37.0267L27.77 32.3983Z" fill="#F5F3EE"/>
<path d="M23.1417 18.5133L27.77 13.885L32.3983 18.5133L27.77 23.1417L23.1417 18.5133Z" fill="#F5F3EE"/>
<path d="M27.77 13.885L32.3983 9.25667L37.0267 13.885L32.3983 18.5133L27.77 13.885Z" fill="#F5F3EE"/>
<path d="M41.655 37.0267L46.2834 32.3983L50.9117 37.0267L46.2834 41.655L41.655 37.0267Z" fill="#F5F3EE"/>
<path d="M27.77 60.1684L32.3983 55.54L37.0267 60.1684L32.3983 64.7967L27.77 60.1684Z" fill="#F5F3EE"/>
<path d="M0 32.3983L4.62833 27.77L9.25667 32.3983L4.62833 37.0267L0 32.3983Z" fill="#F5F3EE"/>
<path d="M27.77 4.62833L32.3983 0L37.0267 4.62833L32.3983 9.25667L27.77 4.62833Z" fill="#F5F3EE"/>
<path d="M55.54 32.3983L60.1684 27.77L64.7967 32.3983L60.1684 37.0267L55.54 32.3983Z" fill="#F5F3EE"/>
<path d="M27.77 50.9117L32.3983 46.2834L37.0267 50.9117L32.3983 55.54L27.77 50.9117Z" fill="#F5F3EE"/>
<path d="M32.3983 46.2834L37.0267 41.655L41.655 46.2834L37.0267 50.9117L32.3983 46.2834Z" fill="#F5F3EE"/>
<path d="M9.25667 32.3983L13.885 27.77L18.5133 32.3983L13.885 37.0267L9.25667 32.3983Z" fill="#F5F3EE"/>
</svg>
