<svg preserveAspectRatio="none" width="100%" height="100%" overflow="visible" style="display: block;" viewBox="0 0 16 16" fill="none" xmlns="http://www.w3.org/2000/svg">
<g id="Social Media Icon">
<path id="Vector" d="M8.4998 5.33348C9.78856 5.33348 10.8333 4.28873 10.8333 2.99998C10.8333 1.71122 9.78856 0.666475 8.4998 0.666475C7.21104 0.666475 6.1663 1.71122 6.1663 2.99998C6.1663 4.28873 7.21104 5.33348 8.4998 5.33348Z" fill="var(--fill-0, #7B83EB)"/>
<path id="Vector_2" opacity="0.1" d="M8.33352 3.50009H6.22002L6.23052 3.54659L6.23152 3.55059L6.24252 3.59359C6.39609 4.17594 6.76869 4.67646 7.28252 4.99063C7.79634 5.30479 8.41167 5.40832 9.00002 5.27959V4.16659C8.99949 3.98998 8.9291 3.82076 8.80422 3.69588C8.67934 3.57101 8.51012 3.50062 8.33352 3.50009V3.50009Z" fill="var(--fill-0, black)"/>
<path id="Vector_3" opacity="0.2" d="M7.83379 4.0001H6.39179C6.58104 4.39911 6.87963 4.73623 7.25287 4.97228C7.62611 5.20833 8.05867 5.33362 8.50029 5.3336V4.6666C8.49976 4.49 8.42937 4.32077 8.30449 4.1959C8.17962 4.07102 8.01039 4.00063 7.83379 4.0001V4.0001Z" fill="var(--fill-0, black)"/>
<path id="Vector_4" d="M13.7503 5.50005C14.7168 5.50005 15.5003 4.71655 15.5003 3.75005C15.5003 2.78355 14.7168 2.00005 13.7503 2.00005C12.7838 2.00005 12.0003 2.78355 12.0003 3.75005C12.0003 4.71655 12.7838 5.50005 13.7503 5.50005Z" fill="var(--fill-0, #5059C9)"/>
<path id="Vector_5" d="M15.25 6.00015H11.3195C11.2346 6.00015 11.1532 6.03386 11.0932 6.09388C11.0332 6.15389 10.9995 6.23528 10.9995 6.32015V10.3752C10.9886 10.962 11.1798 11.5348 11.5409 11.9976C11.9019 12.4603 12.4111 12.785 12.983 12.9172C13.3472 12.9936 13.7239 12.9878 14.0856 12.9003C14.4474 12.8128 14.785 12.6457 15.074 12.4112C15.3631 12.1767 15.5961 11.8807 15.7563 11.5447C15.9165 11.2088 15.9997 10.8413 16 10.4692V6.75015C16 6.55124 15.9209 6.36047 15.7803 6.21982C15.6396 6.07917 15.4489 6.00015 15.25 6.00015Z" fill="var(--fill-0, #5059C9)"/>
<path id="Vector_6" d="M12.4998 6.75015V11.5002C12.5003 12.3804 12.2102 13.2362 11.6746 13.9348C11.1389 14.6334 10.3877 15.1356 9.53746 15.3635C8.68721 15.5915 7.7855 15.5324 6.97226 15.1955C6.15901 14.8586 5.47972 14.2626 5.0398 13.5002C4.94359 13.3402 4.86 13.1731 4.7898 13.0002C4.72436 12.8371 4.66925 12.6701 4.6248 12.5002C4.54237 12.1732 4.50039 11.8373 4.4998 11.5002V6.75015C4.49967 6.65162 4.51898 6.55404 4.55662 6.46298C4.59427 6.37193 4.64951 6.2892 4.71918 6.21953C4.78885 6.14986 4.87158 6.09462 4.96263 6.05697C5.05369 6.01933 5.15127 6.00002 5.2498 6.00015H11.7498C11.8483 6.00002 11.9459 6.01933 12.037 6.05697C12.128 6.09462 12.2108 6.14986 12.2804 6.21953C12.3501 6.2892 12.4053 6.37193 12.443 6.46298C12.4806 6.55404 12.4999 6.65162 12.4998 6.75015V6.75015Z" fill="var(--fill-0, #7B83EB)"/>
<path id="Vector_7" opacity="0.2" d="M7.83379 4.0001H6.39179C6.58104 4.39911 6.87963 4.73623 7.25287 4.97228C7.62611 5.20833 8.05867 5.33362 8.50029 5.3336V4.6666C8.49976 4.49 8.42937 4.32077 8.30449 4.1959C8.17962 4.07102 8.01039 4.00063 7.83379 4.0001V4.0001Z" fill="var(--fill-0, black)"/>
<path id="Vector_8" opacity="0.1" d="M8.9998 6.00015V12.3352C8.99981 12.4859 8.94822 12.6321 8.85362 12.7494C8.75901 12.8668 8.6271 12.9482 8.4798 12.9802C8.43276 12.9941 8.38387 13.0009 8.3348 13.0002H4.7898C4.72436 12.8371 4.66925 12.6701 4.6248 12.5002C4.54237 12.1732 4.50039 11.8373 4.4998 11.5002V6.75015C4.49967 6.65162 4.51898 6.55404 4.55662 6.46298C4.59427 6.37193 4.64951 6.2892 4.71918 6.21953C4.78885 6.14986 4.87158 6.09462 4.96263 6.05697C5.05369 6.01933 5.15127 6.00002 5.2498 6.00015H8.9998Z" fill="var(--fill-0, black)"/>
<path id="Vector_9" opacity="0.2" d="M8.4998 6.00015V12.8352C8.50053 12.8842 8.49379 12.9331 8.4798 12.9802C8.44783 13.1274 8.3664 13.2594 8.24906 13.354C8.13172 13.4486 7.98553 13.5002 7.8348 13.5002H5.0398C4.94359 13.3402 4.86 13.1731 4.7898 13.0002C4.72436 12.8371 4.66925 12.6701 4.6248 12.5002C4.54237 12.1732 4.50039 11.8373 4.4998 11.5002V6.75015C4.49967 6.65162 4.51898 6.55404 4.55662 6.46298C4.59427 6.37193 4.64951 6.2892 4.71918 6.21953C4.78885 6.14986 4.87158 6.09462 4.96263 6.05697C5.05369 6.01933 5.15127 6.00002 5.2498 6.00015H8.4998Z" fill="var(--fill-0, black)"/>
<path id="Vector_10" opacity="0.2" d="M8.4998 6.00015V11.8352C8.49901 12.0113 8.4287 12.18 8.30415 12.3045C8.17961 12.429 8.01093 12.4994 7.8348 12.5002H4.6248C4.54237 12.1732 4.50039 11.8373 4.4998 11.5002V6.75015C4.49967 6.65162 4.51898 6.55404 4.55662 6.46298C4.59427 6.37193 4.64951 6.2892 4.71918 6.21953C4.78885 6.14986 4.87158 6.09462 4.96263 6.05697C5.05369 6.01933 5.15127 6.00002 5.2498 6.00015H8.4998Z" fill="var(--fill-0, black)"/>
<path id="Vector_11" opacity="0.2" d="M5.2498 6.00015C5.15127 6.00002 5.05369 6.01933 4.96263 6.05697C4.87158 6.09462 4.78885 6.14986 4.71918 6.21953C4.64951 6.2892 4.59427 6.37193 4.55662 6.46298C4.51898 6.55404 4.49967 6.65162 4.4998 6.75015V11.5002C4.50039 11.8373 4.54237 12.1732 4.6248 12.5002H7.3348C7.51093 12.4994 7.67961 12.429 7.80416 12.3045C7.9287 12.18 7.99901 12.0113 7.9998 11.8352V6.00015H5.2498Z" fill="var(--fill-0, black)"/>
<path id="Vector_12" d="M0.6665 4.0001H7.3335C7.51027 4.0001 7.67979 4.07032 7.80479 4.19531C7.92978 4.32031 8 4.48983 8 4.6666V11.3336C8 11.5104 7.92978 11.6799 7.80479 11.8049C7.67979 11.9299 7.51027 12.0001 7.3335 12.0001H0.6665C0.489733 12.0001 0.320206 11.9299 0.195213 11.8049C0.0702203 11.6799 0 11.5104 0 11.3336L0 4.6666C0 4.48983 0.0702203 4.32031 0.195213 4.19531C0.320206 4.07032 0.489733 4.0001 0.6665 4.0001V4.0001Z" fill="var(--fill-0, #4B53BC)"/>
<path id="Vector_13" d="M5.99004 6.48764H4.49504V10.4976H3.51404V6.48764H2.01004V5.50264H5.99004V6.48764Z" fill="var(--fill-0, white)"/>
</g>
</svg>
